<svg width="234" height="205" viewBox="0 0 234 205" fill="none" xmlns="http://www.w3.org/2000/svg">
<path d="M31.0664 16.1891L31.1367 15.1916L31.0664 16.1891ZM1.36265 14.8033C1.00055 14.3862 1.04509 13.7546 1.46212 13.3925L8.25798 7.49202C8.67501 7.12993 9.30662 7.17448 9.6687 7.59151C10.0308 8.00855 9.98625 8.64014 9.56923 9.00223L3.52845 14.2471L8.77336 20.2879C9.13545 20.7049 9.09091 21.3365 8.67389 21.6986C8.25686 22.0607 7.62525 22.0162 7.26317 21.5991L1.36265 14.8033ZM197.246 187.147L196.84 188.061L197.246 187.147ZM132.862 106.322L131.881 106.513L132.862 106.322ZM232.742 203.977L228.254 201.987L229.065 200.159L233.553 202.148L232.742 203.977ZM219.279 198.008L210.303 194.029L211.114 192.201L220.089 196.18L219.279 198.008ZM201.328 190.05L196.84 188.061L197.651 186.233L202.139 188.222L201.328 190.05ZM196.84 188.061C194.768 187.142 192.732 186.165 190.733 185.131L191.652 183.355C193.615 184.37 195.616 185.33 197.651 186.233L196.84 188.061ZM179.102 178.2C175.354 175.649 171.777 172.883 168.386 169.922L169.702 168.416C173.032 171.324 176.546 174.041 180.227 176.546L179.102 178.2ZM158.741 160.419C155.719 157.061 152.902 153.524 150.305 149.828L151.941 148.678C154.492 152.308 157.26 155.782 160.228 159.081L158.741 160.419ZM143.198 138.302C141.07 134.335 139.174 130.23 137.526 126.007L139.389 125.28C141.008 129.428 142.87 133.46 144.961 137.357L143.198 138.302ZM133.371 113.12C132.81 110.941 132.313 108.737 131.881 106.513L133.844 106.131C134.268 108.317 134.757 110.481 135.307 112.622L133.371 113.12ZM131.881 106.513C131.495 104.527 131.057 102.561 130.57 100.617L132.509 100.13C133.006 102.109 133.451 104.11 133.844 106.131L131.881 106.513ZM127 89.0931C125.592 85.2961 123.986 81.6027 122.193 78.0243L123.982 77.1286C125.807 80.7718 127.442 84.5323 128.875 88.398L127 89.0931ZM116.208 67.5486C114.017 64.1596 111.649 60.9017 109.115 57.7874L110.667 56.5253C113.246 59.6959 115.658 63.0126 117.888 66.463L116.208 67.5486ZM101.003 48.8546C98.1387 46.0266 95.1227 43.3561 91.9687 40.8556L93.2112 39.2883C96.422 41.8339 99.4924 44.5525 102.408 47.4314L101.003 48.8546ZM82.1192 33.8843C78.7211 31.7468 75.2004 29.7899 71.5711 28.026L72.4453 26.2272C76.1403 28.023 79.7246 30.0152 83.1841 32.1914L82.1192 33.8843ZM60.4476 23.353C56.6786 22.0069 52.8177 20.8594 48.8783 19.9222L49.3412 17.9765C53.352 18.9307 57.2829 20.099 61.1203 21.4695L60.4476 23.353ZM37.0066 17.7742C35.0182 17.5253 33.0141 17.3289 30.996 17.1866L31.1367 15.1916C33.1909 15.3364 35.2309 15.5363 37.2551 15.7897L37.0066 17.7742ZM30.996 17.1866L23.7588 16.6762L23.8996 14.6812L31.1367 15.1916L30.996 17.1866ZM9.28454 15.6555L2.0474 15.1452L2.18808 13.1501L9.42525 13.6605L9.28454 15.6555ZM31.0664 16.1891L31.207 14.194L31.207 14.194L31.0664 16.1891ZM0.60756 15.4589C-0.116623 14.6248 -0.0275342 13.3616 0.806522 12.6375L14.3983 0.836415C15.2323 0.112241 16.4955 0.201317 17.2197 1.03538C17.9438 1.86943 17.8548 3.13263 17.0207 3.85679L4.93917 14.3466L15.429 26.4282C16.1532 27.2622 16.0641 28.5254 15.23 29.2496C14.3959 29.9737 13.1328 29.8847 12.4086 29.0506L0.60756 15.4589ZM197.246 187.147L196.435 188.975L197.246 187.147ZM132.862 106.322L130.899 106.703L132.862 106.322ZM232.337 204.891L227.849 202.902L229.47 199.245L233.958 201.234L232.337 204.891ZM218.874 198.923L209.898 194.944L211.519 191.287L220.495 195.266L218.874 198.923ZM200.923 190.965L196.435 188.975L198.056 185.318L202.544 187.308L200.923 190.965ZM196.435 188.975C194.345 188.048 192.29 187.063 190.274 186.02L192.111 182.467C194.057 183.473 196.039 184.424 198.056 185.318L196.435 188.975ZM178.539 179.026C174.758 176.453 171.149 173.663 167.728 170.675L170.359 167.662C173.66 170.545 177.142 173.237 180.789 175.72L178.539 179.026ZM157.998 161.088C154.949 157.7 152.107 154.132 149.486 150.403L152.759 148.103C155.287 151.7 158.03 155.143 160.971 158.412L157.998 161.088ZM142.317 138.775C140.17 134.773 138.257 130.631 136.594 126.371L140.321 124.916C141.925 129.027 143.77 133.022 145.842 136.884L142.317 138.775ZM132.402 113.369C131.836 111.17 131.335 108.948 130.899 106.703L134.826 105.941C135.246 108.107 135.73 110.251 136.276 112.373L132.402 113.369ZM130.899 106.703C130.517 104.735 130.083 102.787 129.6 100.861L133.479 99.8869C133.98 101.883 134.43 103.901 134.826 105.941L130.899 106.703ZM126.062 89.4406C124.668 85.6781 123.076 82.0181 121.299 78.4722L124.876 76.6807C126.717 80.3564 128.367 84.1503 129.813 88.0505L126.062 89.4406ZM115.368 68.0914C113.197 64.733 110.85 61.5046 108.34 58.4184L111.443 55.8943C114.045 59.093 116.478 62.4391 118.727 65.9202L115.368 68.0914ZM100.3 49.5661C97.4619 46.7636 94.473 44.1171 91.3474 41.6392L93.8324 38.5047C97.0716 41.0728 100.169 43.8154 103.111 46.7199L100.3 49.5661ZM81.5868 34.7308C78.2193 32.6125 74.7304 30.6733 71.1339 28.9254L72.8824 25.3278C76.6103 27.1396 80.2264 29.1495 83.7166 31.3449L81.5868 34.7308ZM60.1113 24.2947C56.3764 22.9609 52.5506 21.8238 48.6469 20.8951L49.5726 17.0037C53.6191 17.9664 57.585 19.1451 61.4566 20.5278L60.1113 24.2947ZM36.8824 18.7665C34.9118 18.5198 32.9257 18.3252 30.9257 18.1841L31.207 14.194C33.2793 14.3402 35.3372 14.5418 37.3793 14.7975L36.8824 18.7665ZM30.9257 18.1841L23.6885 17.6738L23.9699 13.6837L31.207 14.194L30.9257 18.1841ZM9.21419 16.653L1.97705 16.1427L2.25843 12.1526L9.49559 12.663L9.21419 16.653Z " fill="white"/>
</svg>
