<svg width="304" height="185" viewBox="0 0 304 185" fill="none" xmlns="http://www.w3.org/2000/svg">
<path d="M303.149 167.14C304.001 167.844 304.12 169.105 303.417 169.956L291.95 183.831C291.246 184.682 289.985 184.802 289.134 184.098C288.282 183.395 288.163 182.134 288.866 181.283L299.059 168.949L286.726 158.757C285.875 158.053 285.755 156.792 286.459 155.941C287.162 155.089 288.423 154.97 289.274 155.673L303.149 167.14ZM225.077 175.978L224.888 173.987L225.077 175.978ZM78.9527 115.928L77.4182 117.211L78.9527 115.928ZM31.6084 52.6572L33.3443 51.6638L31.6084 52.6572ZM59.1804 92.2737L60.7149 90.991L59.1804 92.2737ZM3.77882 0.00123741L5.25709 2.58437L1.78539 4.57115L0.307119 1.98802L3.77882 0.00123741ZM8.21363 7.75062L11.1702 12.9169L7.69848 14.9037L4.74194 9.73741L8.21363 7.75062ZM14.1267 18.0831L17.0833 23.2494L13.6116 25.2362L10.655 20.0699L14.1267 18.0831ZM20.0398 28.4157L22.9964 33.5819L19.5247 35.5687L16.5681 30.4024L20.0398 28.4157ZM25.9529 38.7482L28.9094 43.9144L25.4377 45.9012L22.4812 40.7349L25.9529 38.7482ZM31.866 49.0807L33.3443 51.6638L29.8726 53.6506L28.3943 51.0675L31.866 49.0807ZM33.3443 51.6638C33.8408 52.5314 34.342 53.3962 34.8479 54.258L31.3984 56.283C30.885 55.4084 30.3764 54.531 29.8726 53.6506L33.3443 51.6638ZM37.9407 59.396C38.9906 61.0974 40.0591 62.787 41.146 64.4645L37.789 66.6396C36.6862 64.9374 35.6019 63.223 34.5366 61.4965L37.9407 59.396ZM44.4623 69.461C45.586 71.1143 46.728 72.7551 47.888 74.3832L44.6302 76.7042C43.4532 75.0522 42.2944 73.3872 41.1541 71.7096L44.4623 69.461ZM51.4214 79.2286C52.6168 80.8305 53.8301 82.4194 55.0608 83.9949L51.9086 86.4574C50.6598 84.8587 49.4287 83.2464 48.2157 81.6209L51.4214 79.2286ZM58.8045 88.6798C59.437 89.4537 60.0738 90.2241 60.7149 90.991L57.6459 93.5564C56.9953 92.7782 56.3492 91.9964 55.7074 91.2112L58.8045 88.6798ZM60.7149 90.991L62.3626 92.9622L59.2936 95.5276L57.6459 93.5564L60.7149 90.991ZM65.658 96.9046L68.9534 100.847L65.8843 103.412L62.5889 99.47L65.658 96.9046ZM72.2487 104.789L75.5441 108.732L72.4751 111.297L69.1797 107.355L72.2487 104.789ZM78.8395 112.674L80.4872 114.645L77.4182 117.211L75.7705 115.239L78.8395 112.674ZM80.4872 114.645C81.1308 115.415 81.7809 116.179 82.4374 116.936L79.415 119.556C78.7428 118.781 78.0772 117.999 77.4182 117.211L80.4872 114.645ZM86.4597 121.411C87.8284 122.88 89.2222 124.323 90.64 125.739L87.8134 128.569C86.3616 127.119 84.9347 125.642 83.5332 124.138L86.4597 121.411ZM94.9731 129.914C96.4432 131.28 97.9369 132.619 99.4532 133.931L96.837 136.956C95.2844 135.614 93.7551 134.243 92.2499 132.844L94.9731 129.914ZM104.075 137.784C105.639 139.041 107.225 140.269 108.832 141.468L106.439 144.674C104.794 143.446 103.17 142.188 101.569 140.901L104.075 137.784ZM113.718 144.98C115.367 146.121 117.037 147.233 118.727 148.314L116.571 151.683C114.841 150.576 113.131 149.438 111.442 148.269L113.718 144.98ZM123.852 151.466C125.579 152.485 127.324 153.474 129.088 154.431L127.179 157.947C125.373 156.966 123.586 155.954 121.819 154.91L123.852 151.466ZM134.426 157.207C136.221 158.1 138.033 158.961 139.861 159.79L138.209 163.433C136.338 162.584 134.482 161.703 132.645 160.789L134.426 157.207ZM145.385 162.175C147.238 162.937 149.107 163.665 150.991 164.361L149.605 168.113C147.677 167.401 145.763 166.655 143.865 165.875L145.385 162.175ZM156.672 166.344C157.624 166.657 158.579 166.962 159.538 167.259L158.356 171.08C157.375 170.776 156.396 170.464 155.422 170.144L156.672 166.344ZM159.538 167.259C160.416 167.53 161.295 167.794 162.177 168.051L161.058 171.891C160.156 171.628 159.255 171.358 158.356 171.08L159.538 167.259ZM167.492 169.505C169.272 169.961 171.059 170.387 172.851 170.783L171.987 174.689C170.152 174.283 168.323 173.847 166.5 173.38L167.492 169.505ZM178.25 171.885C180.056 172.223 181.867 172.53 183.682 172.808L183.077 176.762C181.218 176.478 179.364 176.162 177.515 175.817L178.25 171.885ZM189.142 173.553C190.966 173.771 192.793 173.959 194.623 174.117L194.279 178.102C192.405 177.94 190.534 177.748 188.667 177.524L189.142 173.553ZM200.12 174.501C201.953 174.599 203.789 174.666 205.626 174.704L205.544 178.703C203.664 178.664 201.784 178.595 199.907 178.495L200.12 174.501ZM211.136 174.725C212.972 174.702 214.808 174.649 216.644 174.566L216.825 178.562C214.946 178.647 213.066 178.702 211.186 178.725L211.136 174.725ZM222.143 174.225C223.059 174.154 223.974 174.074 224.888 173.987L225.267 177.969C224.33 178.058 223.393 178.14 222.456 178.213L222.143 174.225ZM224.888 173.987L228.088 173.683L228.466 177.665L225.267 177.969L224.888 173.987ZM234.488 173.075L240.888 172.467L241.266 176.449L234.866 177.057L234.488 173.075ZM247.288 171.859L253.687 171.251L254.066 175.233L247.666 175.841L247.288 171.859ZM260.087 170.643L266.487 170.035L266.865 174.017L260.465 174.625L260.087 170.643ZM272.887 169.427L279.287 168.819L279.665 172.801L273.265 173.409L272.887 169.427ZM285.686 168.211L292.086 167.603L292.464 171.585L286.065 172.193L285.686 168.211ZM298.486 166.995L301.686 166.691L302.064 170.673L298.864 170.977L298.486 166.995Z" fill="#FFC600"/>
</svg>
