<svg width="210" height="137" viewBox="0 0 210 137" fill="none" xmlns="http://www.w3.org/2000/svg">
<path id="Vector 5" d="M12.5185 101.221C11.5678 101.784 10.3412 101.469 9.77888 100.518L0.615233 85.0254C0.0529062 84.0747 0.367764 82.8481 1.31848 82.2858C2.2692 81.7235 3.49576 82.0383 4.05809 82.9891L12.2035 96.7605L25.9749 88.615C26.9257 88.0527 28.1522 88.3675 28.7146 89.3182C29.2769 90.269 28.962 91.4955 28.0113 92.0579L12.5185 101.221ZM88.9809 2.10899L88.9809 0.108992L88.9809 2.10899ZM23.4516 52.9418L21.5144 52.4445L23.4516 52.9418ZM94.1799 2.10899L94.1799 4.10899L94.1799 2.10899ZM172.014 95.2012L173.487 93.8485L172.014 95.2012ZM9.5631 99.0028L10.3101 96.0929L14.1845 97.0874L13.4375 99.9973L9.5631 99.0028ZM11.804 90.2731L13.2979 84.4533L17.1723 85.4479L15.6784 91.2677L11.804 90.2731ZM14.7918 78.6336L16.2857 72.8138L20.1601 73.8083L18.6662 79.6281L14.7918 78.6336ZM17.7796 66.994L19.2735 61.1742L23.1479 62.1688L21.654 67.9885L17.7796 66.994ZM20.7674 55.3544L21.5144 52.4445L25.3888 53.4391L24.6418 56.349L20.7674 55.3544ZM21.5144 52.4445C21.7876 51.3802 22.0845 50.3268 22.4046 49.285L26.2282 50.4595C25.9265 51.4419 25.6465 52.4352 25.3888 53.4391L21.5144 52.4445ZM24.6247 43.1083C25.466 41.0742 26.3986 39.0929 27.4168 37.1687L30.9523 39.0396C29.9928 40.8529 29.1139 42.72 28.321 44.6371L24.6247 43.1083ZM30.7572 31.5199C31.9629 29.685 33.2513 27.9138 34.6164 26.2111L37.7373 28.7131C36.4506 30.318 35.2364 31.9872 34.1002 33.7165L30.7572 31.5199ZM38.9582 21.2897C40.4831 19.7171 42.08 18.2185 43.7428 16.7987L46.3402 19.8406C44.7727 21.1791 43.2673 22.5918 41.8298 24.0743L38.9582 21.2897ZM48.9278 12.7766C50.7164 11.5191 52.5649 10.3449 54.4674 9.25885L56.4505 12.7326C54.6572 13.7564 52.9146 14.8633 51.2283 16.0488L48.9278 12.7766ZM60.3136 6.27703C62.3024 5.37815 64.3382 4.57061 66.4153 3.85902L67.7117 7.64311C65.7543 8.31371 63.8356 9.07477 61.9611 9.922L60.3136 6.27703ZM72.7173 2.02801C74.8342 1.52014 76.9851 1.10946 79.1646 0.800313L79.7263 4.76067C77.6723 5.05203 75.6452 5.43905 73.6504 5.91763L72.7173 2.02801ZM85.6992 0.185673C86.788 0.134721 87.8821 0.108991 88.9809 0.108992L88.9809 4.109C87.9445 4.109 86.9128 4.13326 85.8862 4.18129L85.6992 0.185673ZM88.9809 0.108992L90.2807 0.108989L90.2807 4.10899L88.9809 4.109L88.9809 0.108992ZM92.8802 0.108994L94.1799 0.108991L94.1799 4.10899L92.8802 4.109L92.8802 0.108994ZM94.1799 0.108991C95.1731 0.108992 96.1616 0.13174 97.1446 0.176752L96.9616 4.17257C96.0395 4.13034 95.1121 4.109 94.1799 4.10899L94.1799 0.108991ZM103.05 0.720913C105.022 0.995163 106.967 1.35959 108.881 1.81007L107.964 5.70358C106.171 5.28144 104.348 4.93987 102.499 4.68279L103.05 0.720913ZM114.585 3.43733C116.467 4.07062 118.311 4.7892 120.112 5.58865L118.489 9.24467C116.801 8.49538 115.073 7.82196 113.309 7.2285L114.585 3.43733ZM125.415 8.24405C127.143 9.2124 128.823 10.2589 130.449 11.3789L128.18 14.6729C126.655 13.6227 125.08 12.6415 123.46 11.7337L125.415 8.24405ZM135.171 14.9649C136.69 16.2322 138.149 17.5691 139.543 18.9709L136.708 21.7923C135.4 20.4777 134.032 19.224 132.608 18.0356L135.171 14.9649ZM143.527 23.3629C144.785 24.8848 145.974 26.4668 147.089 28.1043L143.783 30.3561C142.738 28.821 141.623 27.3378 140.444 25.9107L143.527 23.3629ZM150.197 33.1557C151.15 34.8802 152.027 36.6546 152.822 38.4745L149.156 40.0757C148.411 38.3703 147.59 36.7074 146.696 35.0911L150.197 33.1557ZM154.94 44.0149C155.556 45.8814 156.088 47.7873 156.534 49.7282L152.635 50.6224C152.217 48.803 151.718 47.0168 151.141 45.2676L154.94 44.0149ZM157.59 55.5637C157.721 56.5391 157.83 57.5218 157.916 58.5113L153.932 58.86C153.85 57.9314 153.748 57.0094 153.626 56.0944L157.59 55.5637ZM157.916 58.5113C158.012 59.6017 158.137 60.6869 158.291 61.7659L154.331 62.3316C154.167 61.1807 154.033 60.0231 153.932 58.86L157.916 58.5113ZM159.57 68.189C160.114 70.3082 160.772 72.3931 161.542 74.4345L157.799 75.8451C156.978 73.6676 156.275 71.4437 155.695 69.1831L159.57 68.189ZM164.182 80.4278C165.17 82.3732 166.264 84.2661 167.461 86.0975L164.113 88.2859C162.836 86.3324 161.669 84.3132 160.615 82.2381L164.182 80.4278ZM171.338 91.3758C172.03 92.2177 172.747 93.0423 173.487 93.8485L170.54 96.5539C169.751 95.6939 168.987 94.8143 168.248 93.9162L171.338 91.3758ZM173.487 93.8485L175.752 96.3159L172.806 99.0212L170.54 96.5539L173.487 93.8485ZM180.283 101.251L184.814 106.185L181.868 108.891L177.337 103.956L180.283 101.251ZM189.345 111.12L193.876 116.055L190.93 118.76L186.399 113.825L189.345 111.12ZM198.407 120.989L202.938 125.924L199.991 128.629L195.461 123.695L198.407 120.989ZM207.469 130.859L209.734 133.326L206.788 136.031L204.522 133.564L207.469 130.859Z" fill="#FFC600"/>
</svg>
