<svg width="113" height="196" viewBox="0 0 113 196" fill="none" xmlns="http://www.w3.org/2000/svg">
<path id="Vector 3" d="M61.2212 139.89L62.7675 141.158L62.6781 141.267L62.5742 141.363L61.2212 139.89ZM29.4589 10.9228C28.9939 9.92089 29.429 8.73169 30.4309 8.26663L46.7577 0.687869C47.7596 0.222803 48.9488 0.657981 49.4138 1.65988C49.8789 2.66176 49.4437 3.85097 48.4418 4.31604L33.9292 11.0527L40.6658 25.5654C41.1309 26.5673 40.6957 27.7565 39.6938 28.2215C38.692 28.6866 37.5027 28.2514 37.0377 27.2495L29.4589 10.9228ZM84.7562 29.6524L84.0689 31.5306L84.7562 29.6524ZM101.459 90.841L103.005 92.1095L101.459 90.841ZM0.54204 192.913L2.66083 190.967L5.36679 193.912L3.248 195.859L0.54204 192.913ZM6.89842 187.074L11.136 183.181L13.842 186.127L9.60438 190.02L6.89842 187.074ZM15.3736 179.289L19.6112 175.396L22.3171 178.342L18.0796 182.235L15.3736 179.289ZM23.8488 171.504L28.0863 167.611L30.7923 170.557L26.5547 174.45L23.8488 171.504ZM32.3239 163.719L36.5615 159.826L39.2675 162.772L35.0299 166.664L32.3239 163.719ZM40.7991 155.934L45.0367 152.041L47.7426 154.987L43.5051 158.879L40.7991 155.934ZM49.2743 148.148L53.5119 144.256L56.2178 147.202L51.9802 151.094L49.2743 148.148ZM57.7495 140.363L59.8682 138.417L62.5742 141.363L60.4554 143.309L57.7495 140.363ZM59.675 138.621L61.6868 136.169L64.7794 138.706L62.7675 141.158L59.675 138.621ZM65.7106 131.264L69.7344 126.359L72.8269 128.896L68.8032 133.801L65.7106 131.264ZM73.7582 121.454L77.7819 116.549L80.8745 119.086L76.8507 123.991L73.7582 121.454ZM81.8057 111.644L85.8295 106.74L88.922 109.277L84.8982 114.181L81.8057 111.644ZM89.8533 101.835L93.877 96.9298L96.9696 99.4668L92.9458 104.372L89.8533 101.835ZM97.9008 92.0249L99.9127 89.5725L103.005 92.1095L100.993 94.5619L97.9008 92.0249ZM99.9127 89.5725C100.604 88.73 101.253 87.8625 101.861 86.9729L105.164 89.2286C104.491 90.2147 103.771 91.1761 103.005 92.1095L99.9127 89.5725ZM105.034 81.3137C105.926 79.3305 106.638 77.2791 107.165 75.1849L111.044 76.1615C110.46 78.4825 109.671 80.7564 108.681 82.955L105.034 81.3137ZM108.19 68.7773C108.343 66.6232 108.307 64.4521 108.078 62.2895L112.056 61.8685C112.309 64.2659 112.349 66.6725 112.18 69.0599L108.19 68.7773ZM106.829 55.9228C106.53 54.8881 106.183 53.8612 105.79 52.8451L109.519 51.3998C109.956 52.5256 110.34 53.6636 110.672 54.8105L106.829 55.9228ZM105.79 52.8451C105.474 52.0294 105.13 51.2283 104.76 50.4428L108.378 48.7372C108.788 49.6079 109.169 50.4959 109.519 51.3998L105.79 52.8451ZM102.203 45.8877C101.242 44.4281 100.181 43.0422 99.029 41.7392L102.026 39.0896C103.303 40.5338 104.479 42.0701 105.544 43.688L102.203 45.8877ZM95.3005 38.0805C93.976 36.9532 92.5702 35.9182 91.0928 34.9849L93.2291 31.6031C94.8668 32.6377 96.425 33.7849 97.893 35.0344L95.3005 38.0805ZM86.4903 32.5152C85.6979 32.1598 84.8904 31.8312 84.0689 31.5306L85.4435 27.7742C86.3539 28.1074 87.2489 28.4715 88.1272 28.8654L86.4903 32.5152ZM84.0689 31.5306L81.3947 30.552L82.7694 26.7956L85.4435 27.7742L84.0689 31.5306ZM76.0464 28.5948L70.6981 26.6377L72.0727 22.8813L77.421 24.8385L76.0464 28.5948ZM65.3498 24.6805L60.0015 22.7233L61.3761 18.967L66.7244 20.9241L65.3498 24.6805ZM54.6531 20.7662L49.3048 18.809L50.6794 15.0526L56.0278 17.0098L54.6531 20.7662ZM43.9565 16.8518L38.6082 14.8947L39.9828 11.1383L45.3311 13.0954L43.9565 16.8518ZM33.2599 12.9375L30.5857 11.9589L31.9603 8.2025L34.6345 9.1811L33.2599 12.9375Z" fill="#FFC600"/>
</svg>
