<svg width="164" height="173" viewBox="0 0 164 173" fill="none" xmlns="http://www.w3.org/2000/svg">
<path id="Vector 4" d="M0.923726 17.0593C0.0916232 16.3329 0.00592982 15.0695 0.732339 14.2374L12.5698 0.677363C13.2962 -0.154745 14.5597 -0.240435 15.3918 0.485965C16.2239 1.21238 16.3096 2.47581 15.5832 3.30791L5.06096 15.3613L17.1143 25.8835C17.9464 26.6099 18.0321 27.8733 17.3057 28.7054C16.5793 29.5375 15.3159 29.6232 14.4837 28.8968L0.923726 17.0593ZM54.3765 12.0165L54.2412 10.0211L54.3765 12.0165ZM106.781 56.8684L104.789 57.0428L106.781 56.8684ZM137.378 144.14L135.905 145.492L137.378 144.14ZM108.729 79.1196L106.736 79.2939L108.729 79.1196ZM2.10367 13.5572L5.36226 13.3362L5.63294 17.3271L2.37434 17.5481L2.10367 13.5572ZM11.8795 12.8942L18.3966 12.4522L18.6673 16.443L12.1501 16.885L11.8795 12.8942ZM24.9138 12.0102L31.431 11.5682L31.7017 15.559L25.1845 16.001L24.9138 12.0102ZM37.9482 11.1262L44.4654 10.6841L44.7361 14.675L38.2189 15.117L37.9482 11.1262ZM50.9826 10.2421L54.2412 10.0211L54.5119 14.012L51.2533 14.233L50.9826 10.2421ZM54.2412 10.0211C55.4537 9.93889 56.6643 9.90002 57.871 9.90375L57.8586 13.9037C56.7461 13.9003 55.6299 13.9361 54.5119 14.012L54.2412 10.0211ZM65.1092 10.4402C67.5121 10.7908 69.8812 11.3109 72.1993 11.9941L71.0684 15.8309C68.9312 15.201 66.747 14.7215 64.5317 14.3983L65.1092 10.4402ZM78.9985 14.5335C81.197 15.5371 83.327 16.6973 85.3714 18.0076L83.2129 21.3753C81.3281 20.1672 79.3643 19.0975 77.3374 18.1722L78.9985 14.5335ZM91.1892 22.3473C92.1029 23.1355 92.9917 23.9584 93.8534 24.8153L91.033 27.6517C90.2383 26.8615 89.4189 26.1028 88.5765 25.3761L91.1892 22.3473ZM93.8534 24.8153C94.5629 25.5208 95.2499 26.2452 95.9138 26.9874L92.9326 29.6543C92.3205 28.9701 91.6871 28.3022 91.033 27.6517L93.8534 24.8153ZM99.6367 31.673C100.787 33.3088 101.839 35.0079 102.788 36.7608L99.2703 38.665C98.3955 37.0488 97.4256 35.4823 96.3649 33.9742L99.6367 31.673ZM105.325 42.1811C106.063 44.0327 106.694 45.9288 107.213 47.8602L103.35 48.8983C102.871 47.1177 102.29 45.3695 101.609 43.6624L105.325 42.1811ZM108.426 53.7206C108.57 54.7058 108.687 55.6973 108.774 56.6941L104.789 57.0428C104.709 56.1238 104.602 55.2096 104.468 54.3012L108.426 53.7206ZM108.774 56.6941L109.017 59.4755L105.032 59.8242L104.789 57.0428L108.774 56.6941ZM109.504 65.0382L109.991 70.601L106.006 70.9498L105.519 65.387L109.504 65.0382ZM110.478 76.1638L110.721 78.9452L106.736 79.2939L106.493 76.5126L110.478 76.1638ZM110.721 78.9452C110.807 79.9292 110.907 80.9109 111.019 81.89L107.046 82.3474C106.929 81.3321 106.826 80.3142 106.736 79.2939L110.721 78.9452ZM111.856 87.7486C112.189 89.6965 112.575 91.632 113.012 93.5532L109.112 94.4411C108.658 92.4491 108.259 90.442 107.913 88.4222L111.856 87.7486ZM114.483 99.2857C115.026 101.184 115.62 103.066 116.265 104.929L112.484 106.237C111.816 104.305 111.2 102.354 110.637 100.385L114.483 99.2857ZM118.352 110.468C119.098 112.294 119.894 114.1 120.738 115.883L117.123 117.596C116.247 115.747 115.422 113.874 114.649 111.98L118.352 110.468ZM123.417 121.161C124.357 122.894 125.344 124.603 126.379 126.284L122.972 128.381C121.899 126.637 120.875 124.865 119.901 123.068L123.417 121.161ZM129.617 131.238C130.74 132.858 131.908 134.448 133.121 136.008L129.963 138.464C128.705 136.846 127.494 135.196 126.33 133.517L129.617 131.238ZM136.879 140.58C137.526 141.323 138.183 142.059 138.851 142.787L135.905 145.492C135.212 144.738 134.531 143.975 133.86 143.203L136.879 140.58ZM138.851 142.787L140.945 145.067L137.998 147.772L135.905 145.492L138.851 142.787ZM145.132 149.627L149.319 154.187L146.372 156.892L142.185 152.332L145.132 149.627ZM153.506 158.747L157.693 163.307L154.746 166.012L150.559 161.452L153.506 158.747ZM161.88 167.867L163.973 170.147L161.027 172.853L158.933 170.572L161.88 167.867Z" fill="#FFC600"/>
</svg>
