<svg width="86" height="121" viewBox="0 0 86 121" fill="none" xmlns="http://www.w3.org/2000/svg">
<path d="M52.0042 119.612C52.0658 120.438 52.7855 121.057 53.6116 120.996L67.0742 119.991C67.9003 119.93 68.5201 119.21 68.4584 118.384C68.3968 117.558 67.6771 116.938 66.8509 116.999L54.8842 117.893L53.9912 105.926C53.9295 105.1 53.2098 104.48 52.3837 104.542C51.5576 104.603 50.9378 105.323 50.9995 106.149L52.0042 119.612ZM76.3093 93.0118L77.4459 93.9906L76.3093 93.0118ZM70.9223 43.8576L70.0246 45.0593L70.9223 43.8576ZM36.5353 19.6508L37.2253 18.319L36.5353 19.6508ZM48.833 27.3572L47.9353 28.5589L48.833 27.3572ZM0.809993 2.83187L3.7296 4.34444L5.10962 1.68069L2.19001 0.168125L0.809993 2.83187ZM9.56882 7.36958L15.408 10.3947L16.7881 7.73097L10.9488 4.70583L9.56882 7.36958ZM21.2473 13.4199L27.0865 16.445L28.4665 13.7812L22.6273 10.7561L21.2473 13.4199ZM32.9257 19.4701L35.8453 20.9827L37.2253 18.319L34.3057 16.8064L32.9257 19.4701ZM35.8453 20.9827C36.9026 21.5304 37.9482 22.0996 38.9815 22.6897L40.4693 20.0846C39.4004 19.4742 38.3189 18.8855 37.2253 18.319L35.8453 20.9827ZM45.0316 26.481C46.0132 27.1536 46.9814 27.8463 47.9353 28.5589L49.7307 26.1554C48.744 25.4184 47.7426 24.7018 46.7272 24.0061L45.0316 26.481ZM47.9353 28.5589L50.6965 30.6215L52.4918 28.218L49.7307 26.1554L47.9353 28.5589ZM56.2188 34.7466L61.7411 38.8717L63.5365 36.4682L58.0142 32.3431L56.2188 34.7466ZM67.2634 42.9968L70.0246 45.0593L71.82 42.6559L69.0588 40.5933L67.2634 42.9968ZM70.0246 45.0593C70.696 45.5609 71.3447 46.086 71.9698 46.6331L73.9455 44.3755C73.2623 43.7776 72.5535 43.2038 71.82 42.6559L70.0246 45.0593ZM75.4655 50.2066C76.5397 51.49 77.5095 52.8514 78.368 54.2772L80.938 52.7297C79.9998 51.1716 78.94 49.6838 77.766 48.2811L75.4655 50.2066ZM80.6082 58.7468C81.2367 60.2879 81.747 61.8796 82.1324 63.5082L85.0518 62.8175C84.6306 61.0375 84.0729 59.298 83.386 57.6139L80.6082 58.7468ZM82.9033 68.4474C82.9675 69.2757 83 70.1096 83 70.9476H86C86 70.032 85.9645 69.1207 85.8943 68.2156L82.9033 68.4474ZM83 70.9476C83 71.9084 82.9572 72.8652 82.8726 73.8154L85.8607 74.0816C85.9532 73.0431 86 71.9975 86 70.9476H83ZM81.8585 79.4605C81.3539 81.3083 80.6858 83.1079 79.8625 84.8374L82.5712 86.1269C83.471 84.2368 84.201 82.2702 84.7526 80.2508L81.8585 79.4605ZM76.9473 89.7767C76.3915 90.552 75.7996 91.305 75.1726 92.033L77.4459 93.9906C78.131 93.195 78.7779 92.3721 79.3854 91.5249L76.9473 89.7767ZM75.1726 92.033L73.2719 94.2404L75.5452 96.1979L77.4459 93.9906L75.1726 92.033ZM69.4703 98.6551L65.6688 103.07L67.9421 105.027L71.7436 100.613L69.4703 98.6551ZM61.8672 107.484L58.0657 111.899L60.339 113.857L64.1405 109.442L61.8672 107.484ZM54.2641 116.314L52.3633 118.521L54.6367 120.479L56.5374 118.271L54.2641 116.314Z" fill="black"/>
</svg>
