<svg width="97" height="801" viewBox="0 0 97 801" fill="none" xmlns="http://www.w3.org/2000/svg">
<path d="M64.7446 0.999999L72.8511 26.4583C84.3969 62.7179 91.21 100.317 93.1212 138.323V138.323L93.1212 171.626C93.1212 204.332 75.1793 234.402 46.3968 249.934L44.4265 250.998C32.3989 257.488 22.2256 266.939 14.8688 278.458V278.458C7.65673 289.749 3.32884 302.683 3.89246 316.069C4.62279 333.415 6.55197 352.238 6.55197 355.37C6.55197 356.435 6.29044 358.709 5.98604 361.762C3.42431 387.451 21.4488 407.445 44.3874 419.29V419.29V419.29C67.7788 435.541 84.197 460.293 90.2424 488.127V488.127L94.6093 529.149C95.5314 537.811 95.1779 546.562 93.56 555.122L89.6817 575.64C88.3168 582.861 84.4628 589.375 78.7907 594.048L74.2172 597.816C71.5496 600.014 68.2009 601.216 64.7446 601.216V601.216V601.216C48.8181 601.216 33.6829 608.159 23.2941 620.23L20.0225 624.032C16.4031 628.238 13.2113 632.847 11.3866 638.087C8.13113 647.435 6.55196 657.156 6.55196 660.219C6.55196 665.136 1.00001 710.793 1.00001 723.436V723.436C1.00001 760.039 29.0678 789.507 64.2895 799.464L66.184 800" stroke="black" stroke-opacity="0.36" stroke-width="2" stroke-dasharray="13 13"/>
</svg>
