<svg width="1140" height="187" viewBox="0 0 1140 187" fill="none" xmlns="http://www.w3.org/2000/svg">
<path d="M1 60.5238L40.2412 43.2548C89.7406 21.4714 142.636 8.41617 196.586 4.66667V4.66667H215.071C278.13 4.66667 334.738 43.3333 357.674 102.073L360.873 110.267C367.635 127.585 378.434 143.037 392.371 155.34V155.34C410.777 171.588 433.925 181.593 458.405 179.719C480.381 178.038 501.78 175.071 505.722 175.071V175.071C548.961 175.071 578.914 148.363 594.048 107.859L596.762 100.595L607.901 78.4377C623.78 46.8501 651.964 23.1932 685.826 13.0287V13.0287C691.804 11.2342 697.905 9.87727 704.08 8.96876L750.279 2.17193C764.506 0.0787675 779.009 0.873211 792.923 4.50785L812.192 9.54148C827.043 13.4208 839.772 22.9851 847.631 36.1691L850.487 40.9604C854.014 46.8767 855.876 53.6362 855.876 60.5238V60.5238V63.1159C855.876 93.3359 866.538 122.587 885.986 145.718V145.718C893.555 154.72 902.172 163.041 912.998 167.639C924.769 172.638 936.053 175.071 939.912 175.071C946.916 175.071 1011.94 186 1029.95 186V186C1082.19 186 1121.72 142.152 1132.19 90.9756L1139 57.6905" stroke="black" stroke-opacity="0.2" stroke-width="2" stroke-dasharray="13 13"/>
</svg>
